<svg xmlns="http://www.w3.org/2000/svg" width="2800" height="488" fill="none"><path fill="#000" d="M2800 360.155c0 27.145-6.42 50.342-19.25 69.59-12.83 18.754-32.08 33.067-57.74 42.938-25.67 9.871-57.5 14.806-95.51 14.806-28.13 0-52.31-1.974-72.55-5.922-20.23-3.455-40.47-9.378-60.7-17.768V372.74c21.71 9.871 45.16 18.015 70.33 24.431s47.38 9.624 66.63 9.624c21.71 0 37.01-3.208 45.9-9.624 9.37-6.416 14.06-14.806 14.06-25.171 0-6.909-1.97-13.079-5.92-18.508-3.46-5.429-11.35-11.598-23.69-18.508-12.34-6.909-31.59-15.793-57.75-26.651-25.17-10.858-45.89-21.469-62.18-31.834-16.29-10.858-28.38-23.69-36.28-38.496-7.89-15.3-11.84-34.301-11.84-57.004 0-37.51 14.56-65.642 43.68-84.396 29.12-18.755 67.86-28.132 116.23-28.132 25.17 0 49.1 2.467 71.81 7.403 22.7 4.935 46.14 13.079 70.33 24.43l-33.32 79.214c-13.32-5.922-26.16-11.105-38.49-15.547-12.34-4.441-24.43-7.896-36.28-10.364-11.35-2.468-23.2-3.702-35.53-3.702-16.29 0-28.63 2.221-37.02 6.663-7.9 4.442-11.85 11.105-11.85 19.989 0 6.416 1.98 12.338 5.93 17.767 4.44 4.936 12.58 10.365 24.43 16.287 12.34 5.923 30.35 13.82 54.04 23.69 23.2 9.378 43.19 19.249 59.97 29.613 16.78 9.871 29.61 22.456 38.49 37.756 9.38 14.806 14.07 34.301 14.07 58.485ZM2285.81 68.47c45.9 0 80.44 11.846 103.64 35.536 23.69 23.196 35.54 60.706 35.54 112.528v263.552h-110.31v-236.16c0-29.12-4.94-50.835-14.81-65.148-9.87-14.807-25.17-22.21-45.9-22.21-29.12 0-49.85 10.365-62.18 31.094-12.34 20.728-18.51 50.588-18.51 89.578v202.846h-110.31v-236.16c0-19.249-2.22-35.289-6.66-48.121-4.44-12.832-11.11-22.456-19.99-28.872-8.88-6.91-20.24-10.365-34.05-10.365-20.24 0-36.28 5.183-48.13 15.547-11.84 10.364-20.23 25.417-25.17 45.159-4.93 19.742-7.4 43.926-7.4 72.551v190.261h-110.31V75.874h84.4l14.81 51.822h5.92c8.39-13.819 18.75-24.924 31.09-33.314 12.34-8.884 25.91-15.3 40.72-19.248 15.3-4.442 30.6-6.663 45.9-6.663 29.61 0 54.78 4.935 75.51 14.806 20.73 9.377 36.52 24.184 47.38 44.419h9.63c12.33-20.729 29.36-35.782 51.08-45.16 22.21-9.377 44.91-14.065 68.11-14.065Zm-728.83-.74c54.29 0 95.74 11.845 124.37 35.535 29.12 23.196 43.68 58.978 43.68 107.345v269.475h-76.99l-21.47-54.783h-2.97c-11.35 14.313-23.19 26.158-35.53 35.535-11.85 9.377-25.66 16.04-41.46 19.989-15.3 4.441-34.3 6.662-57 6.662-23.69 0-45.16-4.441-64.41-13.325-18.75-9.378-33.56-23.444-44.42-42.198-10.86-19.248-16.29-43.432-16.29-72.551 0-42.938 15.06-74.525 45.16-94.761 30.11-20.728 75.27-32.08 135.48-34.054l70.33-2.221V210.61c0-21.222-5.67-36.769-17.03-46.639-10.85-9.871-26.15-14.807-45.9-14.807-19.74 0-38.99 2.961-57.74 8.884-18.75 5.429-37.51 12.339-56.26 20.729l-36.28-74.772c21.72-11.352 45.65-20.235 71.81-26.651 26.65-6.416 54.29-9.624 82.92-9.624Zm15.54 226.536c-35.53.987-60.21 7.403-74.03 19.248-13.82 11.845-20.73 27.392-20.73 46.64 0 16.781 4.94 28.872 14.81 36.276 9.87 6.909 22.7 10.364 38.5 10.364 23.69 0 43.67-6.91 59.96-20.729 16.29-14.313 24.43-34.301 24.43-59.965v-33.315l-42.94 1.481Zm-250.48 185.82h-319.08v-65.148l187.3-254.668h-176.19V75.873h301.31v71.811L1133.26 395.69h188.78v84.396Z"/><path fill="#000" fill-rule="evenodd" d="M437.381 341.728V.501h-90.254v340.072L97.249 119.98l-59.731 67.661L265.39 388.806H.001v90.253h770.627v-90.253H520.426l227.872-201.165-59.731-67.661-251.186 221.748Z" clip-rule="evenodd"/></svg>