<svg xmlns="http://www.w3.org/2000/svg" width="27" height="27" fill="none"><g fill-rule="evenodd" clip-path="url(#a)" clip-rule="evenodd"><path fill="#36C5F0" d="M10.024.816a2.597 2.597 0 0 0-2.595 2.6 2.597 2.597 0 0 0 2.595 2.599h2.596V3.416a2.6 2.6 0 0 0-2.596-2.6Zm0 6.933H3.105a2.597 2.597 0 0 0-2.595 2.6 2.598 2.598 0 0 0 2.594 2.6h6.92a2.597 2.597 0 0 0 2.595-2.6 2.598 2.598 0 0 0-2.595-2.6Z"/><path fill="#2EB67D" d="M26.458 10.349a2.598 2.598 0 0 0-2.596-2.6 2.598 2.598 0 0 0-2.595 2.6v2.6h2.595a2.598 2.598 0 0 0 2.596-2.6Zm-6.92 0V3.415a2.598 2.598 0 0 0-2.594-2.6 2.598 2.598 0 0 0-2.595 2.6v6.934a2.598 2.598 0 0 0 2.594 2.6 2.598 2.598 0 0 0 2.595-2.6Z"/><path fill="#ECB22E" d="M16.943 26.816a2.597 2.597 0 0 0 2.595-2.6 2.597 2.597 0 0 0-2.595-2.599h-2.595v2.6a2.599 2.599 0 0 0 2.595 2.599Zm0-6.934h6.92a2.598 2.598 0 0 0 2.595-2.6 2.598 2.598 0 0 0-2.595-2.6h-6.92a2.598 2.598 0 0 0-2.594 2.6 2.597 2.597 0 0 0 2.594 2.6Z"/><path fill="#E01E5A" d="M.51 17.282a2.598 2.598 0 0 0 2.595 2.6 2.598 2.598 0 0 0 2.595-2.6v-2.6H3.105a2.598 2.598 0 0 0-2.595 2.6Zm6.92 0v6.933a2.598 2.598 0 0 0 2.594 2.601 2.597 2.597 0 0 0 2.595-2.6v-6.932a2.595 2.595 0 1 0-5.19-.002Z"/></g><defs><clipPath id="a"><path fill="#fff" d="M.51.816h25.948v26H.51z"/></clipPath></defs></svg>