<svg xmlns="http://www.w3.org/2000/svg" width="27" height="26" fill="none"><g clip-path="url(#a)"><path fill="#fff" d="M20.352 6.158H6.667v13.684h13.685V6.158Z"/><path fill="#EA4335" d="m20.352 26 6.158-6.158-3.079-.525-3.079.525-.562 2.817.562 3.341Z"/><path fill="#188038" d="M.51 19.842v4.106C.51 25.082 1.428 26 2.562 26h4.106l.632-3.079-.632-3.079-3.355-.525-2.803.525Z"/><path fill="#1967D2" d="M26.51 6.158V2.053A2.052 2.052 0 0 0 24.457 0h-4.105c-.375 1.527-.562 2.65-.562 3.371 0 .721.187 1.65.562 2.787 1.362.39 2.388.585 3.079.585.69 0 1.717-.195 3.079-.585Z"/><path fill="#FBBC04" d="M26.51 6.158h-6.158v13.684h6.158V6.158Z"/><path fill="#34A853" d="M20.352 19.842H6.667V26h13.685v-6.158Z"/><path fill="#4285F4" d="M20.352 0H2.562A2.052 2.052 0 0 0 .51 2.053v17.79h6.158V6.157h13.684V0Z"/><path fill="#4285F4" d="M9.475 16.773c-.512-.345-.866-.85-1.059-1.517l1.187-.489c.108.41.296.729.565.954.266.226.591.337.971.337.389 0 .722-.118 1-.354a1.13 1.13 0 0 0 .42-.901 1.12 1.12 0 0 0-.441-.914c-.295-.236-.664-.354-1.105-.354h-.686V12.36h.616c.38 0 .7-.102.96-.308.26-.205.39-.485.39-.843a.931.931 0 0 0-.35-.761c-.232-.19-.527-.286-.884-.286-.35 0-.626.093-.832.279a1.64 1.64 0 0 0-.448.686l-1.175-.49c.156-.44.441-.83.86-1.168.42-.337.955-.506 1.605-.506.48 0 .913.093 1.297.279.383.186.684.445.901.773.217.33.325.7.325 1.11 0 .42-.1.773-.303 1.064-.201.291-.45.513-.744.669v.07c.38.157.71.414.955.744.248.334.373.732.373 1.198 0 .465-.118.88-.354 1.245a2.45 2.45 0 0 1-.977.86 3.08 3.08 0 0 1-1.401.315 2.9 2.9 0 0 1-1.666-.517Zm7.292-5.89-1.304.942-.651-.989L17.15 9.15h.896v7.955h-1.28v-6.223Z"/></g><defs><clipPath id="a"><path fill="#fff" d="M.51 0h26v26h-26z"/></clipPath></defs></svg>