<svg xmlns="http://www.w3.org/2000/svg" width="766" height="688" fill="none"><g clip-path="url(#a)"><path fill="#FFBF00" d="m259.604 25.17-9.688 4.01a.649.649 0 0 0 .009 1.203l9.729 3.858a3.61 3.61 0 0 0 2.662 0l9.729-3.858a.65.65 0 0 0 .009-1.203l-9.689-4.01a3.611 3.611 0 0 0-2.761 0Z"/><path fill="#26B5F8" d="M261.848 36.348v9.638c0 .459.462.773.888.604l10.842-4.208a.65.65 0 0 0 .41-.604V32.14a.65.65 0 0 0-.889-.604l-10.841 4.208a.648.648 0 0 0-.41.604Z"/><path fill="#ED3049" d="m259.316 36.845-3.217 1.554-.327.158-6.792 3.254c-.43.208-.98-.106-.98-.584V32.18c0-.173.089-.322.208-.435a.733.733 0 0 1 .164-.123.693.693 0 0 1 .591-.046l10.299 4.081c.524.208.565.942.054 1.188Z"/><path fill="#000" fill-opacity=".25" d="m259.316 36.845-3.217 1.554-7.891-6.654a.73.73 0 0 1 .164-.123.693.693 0 0 1 .591-.046l10.299 4.081c.524.208.565.942.054 1.188Z"/></g><g clip-path="url(#b)"><path fill="#FECF40" d="M327.375 29h-22.75c-.897 0-1.625.727-1.625 1.625v22.75c0 .898.728 1.625 1.625 1.625h22.75c.897 0 1.625-.727 1.625-1.625v-22.75c0-.898-.728-1.625-1.625-1.625Z"/><path fill="#000" d="M321.493 36.34h-2.55l1.322 2.261 1.228-2.261Zm3.545 12.767-9.054-15.029-9.023 14.997h4.833a3.83 3.83 0 0 0 1.84-.47c.605-.333 1.062-.815 1.419-1.4.418-.684.823-1.375 1.235-2.063l1.051-1.762-1.356-2.268-.602.966c-.685 1.144-1.334 2.314-2.044 3.442-.357.566-.824 1.1-1.512 1.239-.104.02-.21.032-.316.035-.142.005-.284.003-.424.003l4.899-8.326 6.292 10.636h2.762Z"/></g><g clip-path="url(#c)"><path fill="#F06A6A" d="M367.581 6.445a5.631 5.631 0 1 1-11.262 0 5.631 5.631 0 1 1 11.262 0Zm-12.947 7.04a5.632 5.632 0 1 0 0 11.264 5.632 5.632 0 0 0 0-11.265Zm14.632 0a5.631 5.631 0 0 0-5.632 5.631 5.631 5.631 0 1 0 11.264 0 5.631 5.631 0 0 0-5.632-5.632Z"/></g><g clip-path="url(#d)"><path fill="#5059C9" d="M148.135 122.969h6.716a1.15 1.15 0 0 1 1.149 1.149v6.117a4.223 4.223 0 0 1-4.222 4.223h-.02a4.223 4.223 0 0 1-4.223-4.222v-6.666a.6.6 0 0 1 .6-.601Zm4.539-1.209a2.72 2.72 0 1 0 0-5.441 2.72 2.72 0 0 0 0 5.441Z"/><path fill="#7B83EB" d="M144.209 121.76a3.93 3.93 0 1 0 .002-7.86 3.93 3.93 0 0 0-.002 7.86Zm5.241 1.209h-11.086a1.137 1.137 0 0 0-1.108 1.163v6.977a6.82 6.82 0 0 0 6.651 6.977 6.82 6.82 0 0 0 6.651-6.977v-6.977a1.137 1.137 0 0 0-1.108-1.163Z"/><path fill="#000" d="M144.512 122.969v9.778a1.112 1.112 0 0 1-1.107 1.106h-5.617a7.387 7.387 0 0 1-.532-2.745v-6.978a1.135 1.135 0 0 1 1.106-1.161h6.15Z" opacity=".1"/><path fill="#000" d="M143.907 122.969v10.382a1.112 1.112 0 0 1-1.106 1.107h-4.729a7.905 7.905 0 0 1-.284-.605 7.387 7.387 0 0 1-.532-2.745v-6.978a1.135 1.135 0 0 1 1.106-1.161h5.545Z" opacity=".2"/><path fill="#000" d="M143.907 122.969v9.173a1.114 1.114 0 0 1-1.106 1.106h-5.225a7.387 7.387 0 0 1-.32-2.14v-6.978a1.135 1.135 0 0 1 1.106-1.161h5.545Z" opacity=".2"/><path fill="#000" d="M143.302 122.969v9.173a1.114 1.114 0 0 1-1.106 1.106h-4.62a7.387 7.387 0 0 1-.32-2.14v-6.978a1.135 1.135 0 0 1 1.106-1.161h4.94Z" opacity=".2"/><path fill="#000" d="M144.512 119.843v1.905c-.103.006-.2.012-.303.012-.102 0-.199-.006-.302-.012a3.346 3.346 0 0 1-.605-.097 3.93 3.93 0 0 1-2.721-2.31 3.37 3.37 0 0 1-.193-.604h3.017c.61.002 1.104.496 1.107 1.106Z" opacity=".1"/><path fill="#000" d="M143.907 120.448v1.3a3.26 3.26 0 0 1-.605-.097 3.93 3.93 0 0 1-2.721-2.309h2.219a1.11 1.11 0 0 1 1.107 1.106Z" opacity=".2"/><path fill="#000" d="M143.907 120.448v1.3a3.26 3.26 0 0 1-.605-.097 3.93 3.93 0 0 1-2.721-2.309h2.219a1.11 1.11 0 0 1 1.107 1.106Z" opacity=".2"/><path fill="#000" d="M143.302 120.448v1.203a3.93 3.93 0 0 1-2.721-2.31h1.615c.61.003 1.104.497 1.106 1.107Z" opacity=".2"/><path fill="url(#e)" d="M131.108 119.341h11.086c.612 0 1.108.497 1.108 1.109v11.085c0 .613-.496 1.109-1.108 1.109h-11.086a1.108 1.108 0 0 1-1.108-1.109V120.45c0-.612.496-1.109 1.108-1.109Z"/><path fill="#fff" d="M139.568 123.561h-2.216v6.034h-1.412v-6.034h-2.206v-1.171h5.834v1.171Z"/></g><path fill="#292929" d="M657.693 164.914c-3.818 0-6.693-3.022-6.693-6.752 0-3.743 2.728-6.789 6.693-6.789 2.104 0 3.56.647 4.698 2.126l-1.835 1.53c-.771-.821-1.701-1.231-2.863-1.231-2.582 0-4.001 1.977-4.001 4.364 0 2.387 1.554 4.327 4.001 4.327 1.15 0 2.129-.41 2.899-1.231l1.811 1.592c-1.089 1.417-2.581 2.064-4.71 2.064Zm12.614-9.936h2.472v9.698h-2.472v-1.417c-.513 1.007-1.37 1.679-3.009 1.679-2.619 0-4.711-2.276-4.711-5.073 0-2.798 2.092-5.073 4.711-5.073 1.627 0 2.496.671 3.009 1.678v-1.492Zm.074 4.887c0-1.517-1.04-2.773-2.68-2.773-1.578 0-2.606 1.268-2.606 2.773 0 1.467 1.028 2.772 2.606 2.772 1.628 0 2.68-1.268 2.68-2.772Zm4.148-8.803H677v13.603h-2.471v-13.603Z"/><g clip-path="url(#f)"><path fill="#2684FF" d="M631.844 95.354a.834.834 0 0 0-.833.966l3.536 21.468c.091.542.558.941 1.108.946h16.965a.834.834 0 0 0 .833-.7l3.536-21.71a.83.83 0 0 0-.833-.966l-24.312-.004Zm14.89 15.516h-5.414l-1.466-7.66h8.193l-1.313 7.66Z"/><path fill="url(#g)" d="M655.843 103.199h-7.812l-1.311 7.654h-5.41l-6.389 7.583c.203.175.461.272.729.274h16.955a.832.832 0 0 0 .833-.699l2.405-14.812Z"/></g><path fill="#3664AE" d="M594.821 97.837c-.842.727-1.889 1.632-3.797 1.632h-1.138c-1.379 0-2.632-.488-3.529-1.373-.876-.865-1.36-2.049-1.36-3.334v-1.52c0-1.284.483-2.469 1.36-3.333.897-.885 2.15-1.373 3.529-1.373h1.138c1.907 0 2.955.905 3.797 1.632.873.755 1.627 1.406 3.635 1.406.312 0 .618-.024.916-.07a6.623 6.623 0 0 0-.429-.863l-1.343-2.269c-1.232-2.081-3.51-3.363-5.974-3.363h-2.687c-2.464 0-4.742 1.282-5.974 3.363l-1.343 2.268a6.58 6.58 0 0 0 0 6.725l1.343 2.268c1.232 2.081 3.51 3.362 5.974 3.362h2.687c2.464 0 4.742-1.282 5.974-3.362l1.343-2.268a6.657 6.657 0 0 0 .429-.862 5.88 5.88 0 0 0-.916-.072c-2.008 0-2.762.651-3.635 1.406Z"/><path fill="#3664AE" d="M591.025 89.912h-1.139c-2.097 0-3.476 1.46-3.476 3.33v1.52c0 1.87 1.378 3.33 3.476 3.33h1.139c3.056 0 2.816-3.037 7.431-3.037.443 0 .88.04 1.305.116a6.55 6.55 0 0 0 0-2.336 7.34 7.34 0 0 1-1.305.116c-4.615 0-4.375-3.039-7.431-3.039Z"/><path fill="#3664AE" d="M602.411 96.28a6.513 6.513 0 0 0-2.651-1.11l-.004.022a6.56 6.56 0 0 1-.385 1.308 5.121 5.121 0 0 1 2.192.88l-.006.02a11.358 11.358 0 0 1-1.647 3.258 11.695 11.695 0 0 1-2.573 2.578 11.933 11.933 0 0 1-7.092 2.3c-1.598 0-3.148-.305-4.606-.906a11.83 11.83 0 0 1-3.763-2.473 11.49 11.49 0 0 1-2.536-3.668 11.23 11.23 0 0 1-.929-4.49c0-1.558.313-3.069.929-4.49a11.501 11.501 0 0 1 2.536-3.668 11.83 11.83 0 0 1 3.763-2.473 12.018 12.018 0 0 1 4.606-.906c2.581 0 5.033.795 7.092 2.3a11.73 11.73 0 0 1 2.573 2.578 11.38 11.38 0 0 1 1.647 3.257l.006.021a5.122 5.122 0 0 1-2.192.88c.175.425.304.865.385 1.31l.004.021a6.512 6.512 0 0 0 2.651-1.11c.756-.546.61-1.161.495-1.527-1.666-5.271-6.704-9.105-12.661-9.105C582.93 81.087 577 86.868 577 94c0 7.132 5.93 12.913 13.245 12.913 5.957 0 10.995-3.834 12.661-9.108.116-.364.262-.979-.495-1.525Z"/><path fill="#5FC2D6" d="M599.372 91.501a5.858 5.858 0 0 1-.915.072c-2.009 0-2.763-.652-3.636-1.406-.842-.728-1.889-1.633-3.797-1.633h-1.138c-1.379 0-2.632.488-3.529 1.374-.876.865-1.36 2.048-1.36 3.333v1.52c0 1.285.483 2.469 1.36 3.333.897.886 2.15 1.373 3.529 1.373h1.138c1.907 0 2.955-.905 3.797-1.632.873-.754 1.627-1.406 3.636-1.406.311 0 .618.025.915.071a6.572 6.572 0 0 0 .389-1.33 7.329 7.329 0 0 0-1.304-.117c-4.615 0-4.375 3.038-7.431 3.038h-1.139c-2.098 0-3.477-1.46-3.477-3.33v-1.52c0-1.87 1.379-3.33 3.477-3.33h1.139c3.056 0 2.816 3.038 7.431 3.038.442 0 .879-.04 1.304-.117a6.544 6.544 0 0 0-.389-1.33Z"/><path fill="#5FC2D6" d="M599.372 91.501a5.858 5.858 0 0 1-.915.072c-2.009 0-2.763-.652-3.636-1.406-.842-.728-1.889-1.633-3.797-1.633h-1.138c-1.379 0-2.632.488-3.529 1.374-.876.865-1.36 2.048-1.36 3.333v1.52c0 1.285.483 2.469 1.36 3.333.897.886 2.15 1.373 3.529 1.373h1.138c1.907 0 2.955-.905 3.797-1.632.873-.754 1.627-1.406 3.636-1.406.311 0 .618.025.915.071a6.572 6.572 0 0 0 .389-1.33 7.329 7.329 0 0 0-1.304-.117c-4.615 0-4.375 3.038-7.431 3.038h-1.139c-2.098 0-3.477-1.46-3.477-3.33v-1.52c0-1.87 1.379-3.33 3.477-3.33h1.139c3.056 0 2.816 3.038 7.431 3.038.442 0 .879-.04 1.304-.117a6.544 6.544 0 0 0-.389-1.33Z"/><g clip-path="url(#h)"><path fill="#0066DA" d="m545.966 58.264 1.146 1.98c.239.417.581.745.983.983l4.095-7.088H544c0 .461.119.923.357 1.34l1.609 2.785Z"/><path fill="#00AC47" d="m557 45.8-4.095-7.088a2.703 2.703 0 0 0-.983.982L544.357 52.8c-.233.408-.357.87-.357 1.34h8.19L557 45.8Z"/><path fill="#EA4335" d="M565.905 61.227c.402-.238.745-.566.983-.983l.476-.819 2.279-3.946a2.7 2.7 0 0 0 .357-1.34h-8.191l1.743 3.425 2.353 3.663Z"/><path fill="#00832D" d="m557 45.8 4.095-7.089a2.618 2.618 0 0 0-1.34-.357h-5.51c-.476 0-.938.134-1.34.357L557 45.8Z"/><path fill="#2684FC" d="M561.81 54.139h-9.62l-4.095 7.088a2.62 2.62 0 0 0 1.34.357h15.13c.476 0 .938-.134 1.34-.357l-4.095-7.088Z"/><path fill="#FFBA00" d="m565.86 46.246-3.782-6.552a2.703 2.703 0 0 0-.983-.983L557 45.8l4.81 8.339h8.175a2.7 2.7 0 0 0-.357-1.34l-3.768-6.553Z"/></g><path fill="#1F40ED" fill-rule="evenodd" d="M491.25 42h20.583v1.94L503.05 55l8.783 11.06V68H491.25V42Zm10.422 11.21 7.138-9.27h-14.277l7.139 9.27Zm-8.106-6.947v7.767h5.98l-5.98-7.767Zm5.98 9.707h-5.98v7.767l5.98-7.767Zm-5.013 10.09 7.139-9.27 7.138 9.27h-14.277Z" clip-rule="evenodd"/><g clip-path="url(#i)"><mask id="j" width="18" height="26" x="744" y="387" maskUnits="userSpaceOnUse" style="mask-type:luminance"><path fill="#fff" d="M761.667 387h-17.334v26h17.334v-26Z"/></mask><g mask="url(#j)"><path fill="#0ACF83" d="M748.667 413a4.334 4.334 0 0 0 4.333-4.333v-4.334h-4.333a4.336 4.336 0 0 0-4.334 4.334 4.335 4.335 0 0 0 4.334 4.333Z"/><path fill="#A259FF" d="M744.333 400a4.335 4.335 0 0 1 4.334-4.333H753v8.666h-4.333a4.335 4.335 0 0 1-4.334-4.333Z"/><path fill="#F24E1E" d="M744.333 391.333a4.335 4.335 0 0 1 4.334-4.333H753v8.667h-4.333a4.336 4.336 0 0 1-4.334-4.334Z"/><path fill="#FF7262" d="M753 387h4.333a4.335 4.335 0 0 1 4.334 4.333 4.336 4.336 0 0 1-4.334 4.334H753V387Z"/><path fill="#1ABCFE" d="M761.667 400a4.334 4.334 0 0 1-8.667 0 4.334 4.334 0 0 1 8.667 0Z"/></g></g><g clip-path="url(#k)"><path fill="#4285F4" d="M702.773 457.141h4.136v-10.045L701 442.664v12.705c0 .979.793 1.773 1.773 1.773v-.001Z"/><path fill="#34A853" d="M721.091 457.141h4.136c.98 0 1.773-.793 1.773-1.772v-12.705l-5.909 4.432v10.045Z"/><path fill="#FBBC04" d="M721.091 439.414v7.682l5.909-4.432v-2.363c0-2.191-2.501-3.442-4.255-2.128l-1.654 1.241Z"/><path fill="#EA4335" fill-rule="evenodd" d="M706.909 447.096v-7.682l7.091 5.318 7.091-5.318v7.682L714 452.414l-7.091-5.318Z" clip-rule="evenodd"/><path fill="#C5221F" d="M701 440.3v2.364l5.909 4.432v-7.682l-1.654-1.241c-1.754-1.315-4.255-.063-4.255 2.127Z"/></g><g clip-path="url(#l)"><mask id="m" width="20" height="26" x="648" y="518" maskUnits="userSpaceOnUse" style="mask-type:luminance"><path fill="#fff" d="M660.35 518h-9.987c-.97 0-1.763.798-1.763 1.773v22.454c0 .975.793 1.773 1.763 1.773h15.275c.969 0 1.762-.798 1.762-1.773v-17.136L660.35 518Z"/></mask><g mask="url(#m)"><path fill="#4285F4" d="M660.35 518h-9.987c-.97 0-1.763.798-1.763 1.773v22.454c0 .975.793 1.773 1.763 1.773h15.275c.969 0 1.762-.798 1.762-1.773v-17.136l-4.112-2.955L660.35 518Z"/></g><mask id="n" width="20" height="26" x="648" y="518" maskUnits="userSpaceOnUse" style="mask-type:luminance"><path fill="#fff" d="M660.35 518h-9.987c-.97 0-1.763.798-1.763 1.773v22.454c0 .975.793 1.773 1.763 1.773h15.275c.969 0 1.762-.798 1.762-1.773v-17.136L660.35 518Z"/></mask><g mask="url(#n)"><path fill="url(#o)" d="m660.865 524.572 6.535 6.571v-6.052l-6.535-.519Z"/></g><mask id="p" width="20" height="26" x="648" y="518" maskUnits="userSpaceOnUse" style="mask-type:luminance"><path fill="#fff" d="M660.35 518h-9.987c-.97 0-1.763.798-1.763 1.773v22.454c0 .975.793 1.773 1.763 1.773h15.275c.969 0 1.762-.798 1.762-1.773v-17.136L660.35 518Z"/></mask><g mask="url(#p)"><path fill="#F1F1F1" d="M653.3 536.909h9.4v-1.182h-9.4v1.182Zm0 2.364h7.05v-1.182h-7.05v1.182Zm0-8.273v1.182h9.4V531h-9.4Zm0 3.545h9.4v-1.181h-9.4v1.181Z"/></g><mask id="q" width="20" height="26" x="648" y="518" maskUnits="userSpaceOnUse" style="mask-type:luminance"><path fill="#fff" d="M660.35 518h-9.987c-.97 0-1.763.798-1.763 1.773v22.454c0 .975.793 1.773 1.763 1.773h15.275c.969 0 1.762-.798 1.762-1.773v-17.136L660.35 518Z"/></mask><g mask="url(#q)"><path fill="#A1C2FA" d="M660.35 518v5.318c0 .98.789 1.773 1.763 1.773h5.287L660.35 518Z"/></g><mask id="r" width="20" height="26" x="648" y="518" maskUnits="userSpaceOnUse" style="mask-type:luminance"><path fill="#fff" d="M660.35 518h-9.987c-.97 0-1.763.798-1.763 1.773v22.454c0 .975.793 1.773 1.763 1.773h15.275c.969 0 1.762-.798 1.762-1.773v-17.136L660.35 518Z"/></mask><g mask="url(#r)"><path fill="#fff" fill-opacity=".2" d="M650.363 518c-.97 0-1.763.798-1.763 1.773v.147c0-.975.793-1.772 1.763-1.772h9.987V518h-9.987Z"/></g><mask id="s" width="20" height="26" x="648" y="518" maskUnits="userSpaceOnUse" style="mask-type:luminance"><path fill="#fff" d="M660.35 518h-9.987c-.97 0-1.763.798-1.763 1.773v22.454c0 .975.793 1.773 1.763 1.773h15.275c.969 0 1.762-.798 1.762-1.773v-17.136L660.35 518Z"/></mask><g mask="url(#s)"><path fill="#1A237E" fill-opacity=".2" d="M665.638 543.852h-15.275c-.97 0-1.763-.797-1.763-1.772v.147c0 .975.793 1.773 1.763 1.773h15.275c.969 0 1.762-.798 1.762-1.773v-.147c0 .975-.793 1.772-1.762 1.772Z"/></g><mask id="t" width="20" height="26" x="648" y="518" maskUnits="userSpaceOnUse" style="mask-type:luminance"><path fill="#fff" d="M660.35 518h-9.987c-.97 0-1.763.798-1.763 1.773v22.454c0 .975.793 1.773 1.763 1.773h15.275c.969 0 1.762-.798 1.762-1.773v-17.136L660.35 518Z"/></mask><g mask="url(#t)"><path fill="#1A237E" fill-opacity=".1" d="M662.113 525.091a1.767 1.767 0 0 1-1.763-1.773v.148c0 .979.789 1.773 1.763 1.773h5.287v-.148h-5.287Z"/></g><path fill="url(#u)" d="M660.35 518h-9.987c-.97 0-1.763.798-1.763 1.773v22.454c0 .975.793 1.773 1.763 1.773h15.275c.969 0 1.762-.798 1.762-1.773v-17.136L660.35 518Z"/></g><path fill="#F8761F" d="M654.857 585.35c-.575-.99-1.385-1.785-2.398-2.383a6.452 6.452 0 0 0-2.426-.84v-3.148a2.325 2.325 0 0 0 1.433-2.176 2.383 2.383 0 0 0-2.38-2.393 2.398 2.398 0 0 0-2.4 2.393c0 .969.517 1.8 1.401 2.176v3.149a6.949 6.949 0 0 0-2.111.662c-1.368-1.039-5.855-4.449-8.48-6.44.062-.224.11-.456.11-.7a2.649 2.649 0 1 0-5.299 0 2.65 2.65 0 0 0 2.651 2.65c.499 0 .961-.146 1.36-.386l.554.42 7.611 5.485a6.373 6.373 0 0 0-1.077 1.261c-.607.961-.978 2.019-.978 3.173v.24c0 .81.154 1.575.416 2.293.23.627.568 1.197.986 1.713l-2.526 2.532a2.035 2.035 0 0 0-2.152.472 2.034 2.034 0 0 0-.599 1.449c0 .547.213 1.061.6 1.448s.901.6 1.448.6c.547 0 1.062-.213 1.449-.6.386-.387.599-.901.599-1.448 0-.212-.032-.419-.094-.615l2.611-2.611c.358.247.745.455 1.16.635.82.354 1.725.57 2.715.57h.182a6.4 6.4 0 0 0 3.098-.783 6.413 6.413 0 0 0 2.429-2.287 5.998 5.998 0 0 0 .943-3.231v-.059c0-1.164-.27-2.237-.836-3.221Zm-3.19 5.478c-.709.788-1.523 1.273-2.444 1.273h-.152c-.526 0-1.04-.145-1.544-.41-.568-.291-.999-.706-1.353-1.232-.365-.516-.563-1.079-.563-1.677v-.181c0-.588.113-1.145.397-1.671a3.617 3.617 0 0 1 1.259-1.377 3.085 3.085 0 0 1 1.745-.526h.059c.578 0 1.125.113 1.641.377.526.282.955.667 1.288 1.173.324.506.516 1.052.578 1.647.01.123.015.25.015.371 0 .807-.309 1.555-.926 2.233Z"/><path fill="#F62B54" d="M548.234 648.005a3.243 3.243 0 0 1-2.829-1.642 3.139 3.139 0 0 1 .089-3.232l5.827-9.15a3.25 3.25 0 0 1 2.876-1.563 3.244 3.244 0 0 1 2.784 1.716 3.138 3.138 0 0 1-.175 3.227l-5.824 9.15a3.245 3.245 0 0 1-2.748 1.494Z"/><path fill="#FC0" d="M558.228 648.005a3.238 3.238 0 0 1-2.824-1.638 3.13 3.13 0 0 1 .089-3.224l5.816-9.129a3.243 3.243 0 0 1 2.878-1.596 3.24 3.24 0 0 1 2.803 1.726 3.132 3.132 0 0 1-.21 3.242l-5.815 9.129a3.243 3.243 0 0 1-2.737 1.49Z"/><path fill="#00CA72" d="M568 648.081c1.657 0 3-1.315 3-2.937 0-1.622-1.343-2.936-3-2.936s-3 1.314-3 2.936c0 1.622 1.343 2.937 3 2.937Z"/><g clip-path="url(#v)"><path fill="#0066DA" d="m512.244 627.544-2.052 1.13-1.016 1.943 1.016 2.378 1.923 2.081 2.082-1.159 1.278-2.205-1.278-2.727-1.953-1.441Z"/><path fill="#2684FC" d="m504.297 635.491 4.878-4.879a8.037 8.037 0 0 1 2.94 4.459l-6.693 6.699a1.541 1.541 0 0 1-2.18 0l-4.514-4.513a1.228 1.228 0 0 1 0-1.742l1.924-1.923a1.225 1.225 0 0 1 1.741 0l1.904 1.899Zm13.343-7.685-1.958-1.959a1.237 1.237 0 0 0-1.742 0l-1.696 1.697a12.389 12.389 0 0 1 3.23 4.168l2.166-2.165a1.227 1.227 0 0 0 0-1.741ZM512.347 637a8.015 8.015 0 1 1-16.031 0 8.012 8.012 0 0 1 8.016-8.015c1.82 0 3.497.606 4.843 1.632l3.069-3.068a12.247 12.247 0 0 0-7.912-2.881c-6.812 0-12.332 5.52-12.332 12.332 0 6.812 5.52 12.332 12.332 12.332 6.812 0 12.331-5.52 12.331-12.332 0-1.889-.429-3.685-1.189-5.288l-3.359 3.364c.148.617.232 1.263.232 1.924Z"/></g><path fill="#222326" d="m448.83 667.422 14.748 14.748a.374.374 0 0 1-.187.637c-.499.093-1.009.158-1.526.192a.385.385 0 0 1-.297-.112l-13.455-13.455a.385.385 0 0 1-.112-.297c.034-.517.099-1.027.192-1.526a.374.374 0 0 1 .637-.187Zm-.415 5.971c-.099-.367.335-.598.603-.33l8.919 8.919c.268.268.037.702-.33.603a13.034 13.034 0 0 1-9.192-9.192Zm1.292-9.876a.379.379 0 0 1 .598-.073l17.251 17.251a.379.379 0 0 1-.073.598c-.365.211-.741.404-1.127.579a.383.383 0 0 1-.429-.08l-16.719-16.719a.383.383 0 0 1-.08-.429c.175-.386.368-.762.579-1.127ZM460.986 657c7.187 0 13.014 5.827 13.014 13.014 0 3.816-1.642 7.248-4.258 9.628a.38.38 0 0 1-.527-.016l-17.841-17.841a.38.38 0 0 1-.016-.527 12.979 12.979 0 0 1 9.628-4.258Z"/><g clip-path="url(#w)"><path fill="#34A853" d="M406.792 659.26a26.148 26.148 0 0 1 2.048 3.021c.523.991.741 1.662 1.122 2.856.235.659.446.856.901.856.496 0 .721-.335.895-.853.36-1.127.644-1.987 1.09-2.8.877-1.569 1.966-2.963 3.037-4.304.289-.379 2.163-2.589 3.006-4.332 0 0 1.037-1.915 1.037-4.59 0-2.502-1.022-4.238-1.022-4.238l-2.944.788-1.787 4.708-.442.649-.089.118-.117.147-.207.235-.295.295-1.592 1.297-3.979 2.298-.662 3.849Z"/><path fill="#FBBC04" d="M402.685 653.382c.971 2.218 2.844 4.168 4.111 5.88l6.731-7.973s-.949 1.24-2.669 1.24a3.448 3.448 0 0 1-3.463-3.459c0-1.323.796-2.231.796-2.231l-4.569 1.224-.937 5.319Z"/><path fill="#4285F4" d="M413.602 640.41c2.235.721 4.148 2.234 5.306 4.465l-5.379 6.41s.796-.926.796-2.24c0-1.974-1.663-3.449-3.458-3.449-1.698 0-2.674 1.238-2.674 1.238v-4.038l5.409-2.386Z"/><path fill="#1A73E8" d="M403.918 643.242c1.335-1.597 3.684-3.242 6.923-3.242 1.571 0 2.755.412 2.755.412l-5.408 6.426h-3.831l-.439-3.596Z"/><path fill="#EA4335" d="M402.685 653.382s-.893-1.75-.893-4.285c0-2.395.931-4.49 2.126-5.855l4.273 3.596-5.506 6.544Z"/></g><g clip-path="url(#x)"><mask id="y" width="19" height="26" x="353" y="662" maskUnits="userSpaceOnUse" style="mask-type:alpha"><path fill="#fff" d="M364.923 662.372h-9.758c-.947 0-1.722.775-1.722 1.722v21.812c0 .947.775 1.722 1.722 1.722h14.925c.947 0 1.722-.775 1.722-1.722V669.26l-6.889-6.888Z"/></mask><g mask="url(#y)"><path fill="#0F9D58" d="M364.923 662.372h-9.758c-.947 0-1.722.775-1.722 1.722v21.812c0 .947.775 1.722 1.722 1.722h14.925c.947 0 1.722-.775 1.722-1.722V669.26l-4.019-2.87-2.87-4.018Z"/></g><mask id="z" width="19" height="26" x="353" y="662" maskUnits="userSpaceOnUse" style="mask-type:alpha"><path fill="#fff" d="M364.923 662.372h-9.758c-.947 0-1.722.775-1.722 1.722v21.812c0 .947.775 1.722 1.722 1.722h14.925c.947 0 1.722-.775 1.722-1.722V669.26l-6.889-6.888Z"/></mask><g mask="url(#z)"><path fill="#F1F1F1" d="M358.035 674.713v8.323h9.184v-8.323h-9.184Zm4.018 7.175h-2.87v-1.435h2.87v1.435Zm0-2.296h-2.87v-1.435h2.87v1.435Zm0-2.296h-2.87v-1.435h2.87v1.435Zm4.018 4.592h-2.87v-1.435h2.87v1.435Zm0-2.296h-2.87v-1.435h2.87v1.435Zm0-2.296h-2.87v-1.435h2.87v1.435Z"/></g><mask id="A" width="19" height="26" x="353" y="662" maskUnits="userSpaceOnUse" style="mask-type:alpha"><path fill="#fff" d="M364.923 662.372h-9.758c-.947 0-1.722.775-1.722 1.722v21.812c0 .947.775 1.722 1.722 1.722h14.925c.947 0 1.722-.775 1.722-1.722V669.26l-6.889-6.888Z"/></mask><g mask="url(#A)"><path fill="url(#B)" d="m365.427 668.756 6.385 6.383v-5.879l-6.385-.504Z"/></g><mask id="C" width="19" height="26" x="353" y="662" maskUnits="userSpaceOnUse" style="mask-type:alpha"><path fill="#fff" d="M364.923 662.372h-9.758c-.947 0-1.722.775-1.722 1.722v21.812c0 .947.775 1.722 1.722 1.722h14.925c.947 0 1.722-.775 1.722-1.722V669.26l-6.889-6.888Z"/></mask><g mask="url(#C)"><path fill="#87CEAC" d="M364.924 662.372v5.166c0 .951.77 1.722 1.722 1.722h5.166l-6.888-6.888Z"/></g><mask id="D" width="19" height="26" x="353" y="662" maskUnits="userSpaceOnUse" style="mask-type:alpha"><path fill="#fff" d="M364.923 662.372h-9.758c-.947 0-1.722.775-1.722 1.722v21.812c0 .947.775 1.722 1.722 1.722h14.925c.947 0 1.722-.775 1.722-1.722V669.26l-6.889-6.888Z"/></mask><g mask="url(#D)"><path fill="#fff" fill-opacity=".2" d="M355.165 662.372c-.947 0-1.722.775-1.722 1.722v.143c0-.947.775-1.722 1.722-1.722h9.758v-.143h-9.758Z"/></g><mask id="E" width="19" height="26" x="353" y="662" maskUnits="userSpaceOnUse" style="mask-type:alpha"><path fill="#fff" d="M364.923 662.372h-9.758c-.947 0-1.722.775-1.722 1.722v21.812c0 .947.775 1.722 1.722 1.722h14.925c.947 0 1.722-.775 1.722-1.722V669.26l-6.889-6.888Z"/></mask><g mask="url(#E)"><path fill="#263238" fill-opacity=".2" d="M370.09 687.485h-14.925a1.727 1.727 0 0 1-1.722-1.722v.143c0 .947.775 1.722 1.722 1.722h14.925c.947 0 1.722-.775 1.722-1.722v-.143c0 .947-.775 1.722-1.722 1.722Z"/></g><mask id="F" width="19" height="26" x="353" y="662" maskUnits="userSpaceOnUse" style="mask-type:alpha"><path fill="#fff" d="M364.923 662.372h-9.758c-.947 0-1.722.775-1.722 1.722v21.812c0 .947.775 1.722 1.722 1.722h14.925c.947 0 1.722-.775 1.722-1.722V669.26l-6.889-6.888Z"/></mask><g mask="url(#F)"><path fill="#263238" fill-opacity=".1" d="M366.646 669.26a1.721 1.721 0 0 1-1.722-1.722v.143c0 .952.77 1.722 1.722 1.722h5.166v-.143h-5.166Z"/></g><path fill="url(#G)" d="M364.923 662.372h-9.758c-.947 0-1.722.775-1.722 1.722v21.812c0 .947.775 1.722 1.722 1.722h14.925c.947 0 1.722-.775 1.722-1.722V669.26l-6.889-6.888Z"/></g><path fill="#29B5E8" d="M253.178 652.371c.82.058 1.472.725 1.5 1.547l.001.055v6.306c0 .889-.728 1.609-1.622 1.609a1.616 1.616 0 0 1-1.622-1.555l-.001-.054v-3.528l-3.088 1.766a1.628 1.628 0 0 1-2.215-.586 1.604 1.604 0 0 1 .544-2.171l.049-.029 5.512-3.15c.296-.171.625-.237.942-.21Zm6.521.175.064.035 5.511 3.15a1.605 1.605 0 0 1 .593 2.2 1.624 1.624 0 0 1-2.164.613l-.05-.027-3.086-1.766v3.528c0 .889-.726 1.609-1.624 1.609a1.613 1.613 0 0 1-1.62-1.555l-.001-.054v-6.306c0-.847.66-1.543 1.501-1.602.293-.025.597.03.876.175Zm-14.314-8.177.05.028 5.508 3.152a1.604 1.604 0 0 1 .814 1.345c.004.174-.019.351-.074.523-.11.353-.341.669-.679.882l-.061.036-5.508 3.154a1.63 1.63 0 0 1-2.216-.586 1.6 1.6 0 0 1 .544-2.17l.049-.029 3.078-1.759-3.078-1.764a1.596 1.596 0 0 1-.593-2.195 1.63 1.63 0 0 1 2.166-.617Zm23.396.617c.45.769.184 1.75-.593 2.195l-3.078 1.764 3.078 1.759a1.6 1.6 0 0 1 .593 2.199 1.63 1.63 0 0 1-2.215.586l-5.512-3.154a1.592 1.592 0 0 1-.736-.918 1.568 1.568 0 0 1-.016-.903c.11-.393.369-.744.752-.965l5.512-3.152a1.63 1.63 0 0 1 2.215.589Zm-12.445.951c.093 0 .222.052.287.119l2.291 2.268a.457.457 0 0 1 .119.286v.668a.454.454 0 0 1-.119.283l-2.291 2.268a.46.46 0 0 1-.287.121h-.674a.472.472 0 0 1-.288-.121l-2.29-2.268a.458.458 0 0 1-.118-.283v-.668c0-.093.053-.222.118-.286l2.29-2.268a.464.464 0 0 1 .288-.119h.674Zm-.324 1.935h-.026a.47.47 0 0 0-.286.118l-.663.655a.461.461 0 0 0-.117.287v.025c0 .091.05.217.117.283l.663.657a.472.472 0 0 0 .286.118h.026a.472.472 0 0 0 .286-.118l.664-.657a.467.467 0 0 0 .121-.283v-.025a.478.478 0 0 0-.121-.287l-.664-.655a.472.472 0 0 0-.286-.118ZM258.943 636c.88 0 1.594.691 1.623 1.553l.001.054v3.529l3.086-1.768a1.628 1.628 0 0 1 2.214.587 1.603 1.603 0 0 1-.544 2.17l-.049.029-5.511 3.153a1.628 1.628 0 0 1-.94.21 1.615 1.615 0 0 1-1.5-1.549l-.001-.055v-6.306c0-.887.723-1.607 1.621-1.607Zm-5.886 0c.876 0 1.592.691 1.621 1.553l.001.054v6.306c0 .846-.662 1.543-1.501 1.604a1.634 1.634 0 0 1-.878-.175l-.064-.035-5.512-3.153a1.603 1.603 0 0 1-.593-2.199 1.63 1.63 0 0 1 2.165-.614l.05.027 3.088 1.768v-3.529c0-.887.725-1.607 1.623-1.607Z"/><g clip-path="url(#H)"><path stroke="#20808D" stroke-linecap="round" stroke-linejoin="round" stroke-width=".667" d="M323.707 636v26m-6.847-17.951v-6.66l6.847 6.66m-6.847 0h6.847m-6.847 0H314m9.707 0-6.847 6.958m6.847-6.958 6.846-6.66v6.66m-6.846 0 6.846 6.958m-6.846-6.958v9.666m0-9.666h6.846m-6.846 0h9.706m-9.706 0H314m9.707 9.666-6.847 6.896v-9.604m6.847 2.708 6.846 6.896m-13.693-9.604v2.924H314v-9.882m16.553 0h2.86m0 0v9.882h-2.86m0 0v6.68m0-6.68v-2.924m0 0v9.604"/></g><g clip-path="url(#I)"><path fill="#635BFF" d="M228.998 607.989c0-1.849-.895-3.307-2.607-3.307-1.718 0-2.758 1.458-2.758 3.293 0 2.173 1.228 3.271 2.989 3.271.86 0 1.51-.195 2.001-.47v-1.444c-.491.246-1.055.397-1.769.397-.701 0-1.322-.245-1.401-1.097h3.531c0-.094.014-.47.014-.643Zm-3.567-.686c0-.816.498-1.155.953-1.155.441 0 .91.339.91 1.155h-1.863Zm-4.586-2.621c-.707 0-1.162.332-1.415.563l-.094-.448h-1.589v8.42l1.806-.382.007-2.044c.26.188.643.455 1.278.455 1.293 0 2.47-1.04 2.47-3.329-.007-2.094-1.199-3.235-2.463-3.235m-.433 4.975c-.426 0-.679-.152-.852-.339l-.007-2.679c.187-.21.447-.354.859-.354.657 0 1.112.736 1.112 1.682 0 .968-.448 1.69-1.112 1.69Zm-5.149-5.401 1.813-.39V602.4l-1.813.382v1.474Zm0 .548h1.813v6.319h-1.813v-6.319Zm-1.942.535-.116-.535h-1.56v6.319h1.806v-4.282c.426-.556 1.148-.455 1.372-.376v-1.661c-.231-.086-1.076-.245-1.502.535Zm-3.611-2.102-1.762.376-.007 5.784c0 1.069.801 1.856 1.87 1.856.592 0 1.026-.108 1.264-.238v-1.466c-.231.094-1.372.426-1.372-.643v-2.564h1.372v-1.538h-1.372l.007-1.567Zm-4.882 3.402c0-.282.232-.39.614-.39.549 0 1.242.166 1.791.462v-1.697a4.745 4.745 0 0 0-1.791-.332c-1.466 0-2.441.765-2.441 2.043 0 1.993 2.745 1.676 2.745 2.535 0 .332-.289.44-.694.44-.599 0-1.365-.245-1.971-.577v1.718a5 5 0 0 0 1.971.412c1.502 0 2.535-.744 2.535-2.036-.007-2.152-2.759-1.77-2.759-2.578Z"/></g><g clip-path="url(#J)"><path fill="url(#K)" d="M174.461 609h-20.922a2.54 2.54 0 0 0-2.539 2.539v20.922a2.54 2.54 0 0 0 2.539 2.539h20.922a2.54 2.54 0 0 0 2.539-2.539v-20.922a2.54 2.54 0 0 0-2.539-2.539Z"/><path fill="#fff" d="M172.401 612.38h-5.492a1.22 1.22 0 0 0-1.219 1.219v8.937a1.22 1.22 0 0 0 1.219 1.219h5.492a1.22 1.22 0 0 0 1.219-1.219v-8.937a1.22 1.22 0 0 0-1.219-1.219Zm-11.31 0h-5.492a1.22 1.22 0 0 0-1.219 1.219v15.437a1.22 1.22 0 0 0 1.219 1.219h5.492a1.22 1.22 0 0 0 1.219-1.219v-15.437a1.22 1.22 0 0 0-1.219-1.219Z"/></g><g clip-path="url(#L)"><path fill="red" d="M159.426 567.588a3.266 3.266 0 0 0-2.301-2.301c-2.018-.55-10.138-.55-10.138-.55s-8.121.017-10.139.567a3.266 3.266 0 0 0-2.301 2.301c-.61 3.585-.847 9.048.017 12.489a3.27 3.27 0 0 0 2.301 2.301c2.018.551 10.138.551 10.138.551s8.121 0 10.138-.551a3.277 3.277 0 0 0 1.458-.843c.403-.404.694-.907.843-1.458.644-3.59.842-9.049-.016-12.506Z"/><path fill="#fff" d="m144.402 577.743 6.737-3.902-6.737-3.902v7.804Z"/></g><g clip-path="url(#M)"><path fill="#000" d="M89.675 546.004 99.14 535h-2.243l-8.22 9.554L82.114 535h-7.572l9.927 14.448-9.927 11.539h2.243l8.68-10.09 6.933 10.09h7.572l-10.296-14.983Zm-3.073 3.571-1.005-1.439-8.004-11.447h3.446l6.459 9.238 1.005 1.439 8.396 12.009h-3.446l-6.85-9.799v-.001Z"/></g><g clip-path="url(#N)"><path fill="url(#O)" d="M34.196 470.306c-.682.859-2.065.389-2.081-.708l-.24-16.042H42.66c1.954 0 3.043 2.257 1.828 3.787l-10.293 12.963Z"/><path fill="url(#P)" fill-opacity=".2" d="M34.196 470.306c-.682.859-2.065.389-2.081-.708l-.24-16.042H42.66c1.954 0 3.043 2.257 1.828 3.787l-10.293 12.963Z"/><path fill="#3ECF8E" d="M29.81 444.494c.682-.859 2.065-.388 2.081.709l.105 16.041H21.345c-1.954 0-3.043-2.256-1.828-3.786l10.293-12.964Z"/></g><g clip-path="url(#Q)"><path fill="#00A1E0" d="M34.82 234.134a4.558 4.558 0 0 1 3.297-1.415c1.716 0 3.213.957 4.01 2.378a5.537 5.537 0 0 1 2.268-.482c3.095 0 5.605 2.531 5.605 5.654 0 3.123-2.51 5.654-5.605 5.654-.37 0-.74-.036-1.104-.11a4.096 4.096 0 0 1-5.37 1.687 4.676 4.676 0 0 1-8.69-.212 4.296 4.296 0 0 1-.891.093c-2.397 0-4.34-1.963-4.34-4.385 0-1.623.873-3.04 2.17-3.798a5.046 5.046 0 0 1 4.634-7.048c1.638 0 3.093.778 4.016 1.984Z"/><path fill="#fff" d="M27.766 241.587c-.016.043.006.052.011.059.049.036.098.061.148.09.266.14.516.181.778.181.533 0 .864-.283.864-.74v-.009c0-.422-.373-.575-.724-.686l-.046-.015c-.264-.086-.492-.16-.492-.334v-.009c0-.149.133-.259.34-.259.23 0 .502.077.678.174 0 0 .051.033.07-.017.01-.027.1-.266.108-.292.01-.028-.007-.049-.025-.06a1.511 1.511 0 0 0-.764-.205h-.054c-.488 0-.829.295-.829.718v.009c0 .445.376.59.728.69l.057.018c.257.079.478.146.478.327v.009c0 .165-.144.288-.376.288-.09 0-.377-.002-.687-.198l-.088-.055c-.015-.01-.053-.026-.07.024l-.105.292Zm7.808 0c-.017.043.006.052.01.059.05.036.1.061.15.09.264.14.515.181.777.181.533 0 .864-.283.864-.74v-.009c0-.422-.374-.575-.724-.686l-.046-.015c-.264-.086-.492-.16-.492-.334v-.009c0-.149.133-.259.34-.259.23 0 .502.077.677.174 0 0 .052.033.07-.017l.11-.292c.01-.028-.009-.049-.027-.06a1.511 1.511 0 0 0-.764-.205h-.053c-.488 0-.829.295-.829.718v.009c0 .445.376.59.728.69l.057.018c.256.079.478.146.478.327v.009c0 .165-.144.288-.376.288-.09 0-.377-.002-.687-.198l-.088-.055c-.01-.006-.055-.024-.07.024l-.105.292Zm5.33-.894c0 .258-.048.461-.143.605-.094.142-.236.211-.434.211s-.339-.069-.431-.211c-.093-.144-.14-.347-.14-.605s.047-.461.14-.603c.092-.141.233-.21.431-.21.198 0 .34.069.434.21.095.142.143.345.143.603Zm.445-.479a1.076 1.076 0 0 0-.203-.387.98.98 0 0 0-.342-.26 1.13 1.13 0 0 0-.477-.095c-.18 0-.341.032-.477.095a.998.998 0 0 0-.342.26 1.1 1.1 0 0 0-.203.387 1.696 1.696 0 0 0-.065.479c0 .17.022.331.065.478.044.147.112.278.203.387a.959.959 0 0 0 .342.258c.136.061.297.093.478.093.18 0 .34-.032.477-.093a.956.956 0 0 0 .341-.258c.091-.109.16-.239.203-.387a1.68 1.68 0 0 0 .066-.478 1.67 1.67 0 0 0-.066-.479Zm3.656 1.226c-.015-.043-.057-.027-.057-.027a1.045 1.045 0 0 1-.451.077c-.215 0-.387-.064-.51-.191-.122-.126-.191-.331-.19-.608 0-.253.061-.442.17-.587.109-.143.274-.217.495-.217.183 0 .323.021.47.067 0 0 .035.016.052-.03l.109-.305c.012-.034-.017-.048-.028-.052a1.74 1.74 0 0 0-.63-.097c-.188 0-.354.031-.497.095a1.023 1.023 0 0 0-.575.646 1.544 1.544 0 0 0-.073.48c0 .369.1.667.297.886.197.219.493.331.879.331.228 0 .462-.047.63-.113 0 0 .032-.015.018-.053l-.11-.302Zm.779-.995a.875.875 0 0 1 .122-.355.48.48 0 0 1 .43-.219c.198 0 .329.078.423.219a.749.749 0 0 1 .1.355h-1.075Zm1.499-.315a.935.935 0 0 0-.193-.353.896.896 0 0 0-.286-.218 1.112 1.112 0 0 0-.432-.087c-.188 0-.359.031-.498.097a.995.995 0 0 0-.55.656c-.045.148-.067.31-.067.481 0 .173.023.335.069.481a.99.99 0 0 0 .218.383 1 1 0 0 0 .379.251c.151.058.336.089.547.088.435-.001.665-.098.759-.15.017-.01.032-.026.013-.073l-.099-.276c-.015-.041-.057-.026-.057-.026-.108.04-.26.112-.618.112-.234-.001-.407-.07-.516-.177-.111-.111-.166-.273-.175-.502l1.507.002s.04-.001.043-.04c.002-.016.052-.309-.044-.649Zm-13.569.315a.88.88 0 0 1 .122-.355.48.48 0 0 1 .431-.219c.198 0 .329.078.423.219a.746.746 0 0 1 .1.355h-1.075Zm1.499-.315a.934.934 0 0 0-.193-.353.896.896 0 0 0-.285-.218 1.113 1.113 0 0 0-.432-.087c-.188 0-.36.031-.498.097a.994.994 0 0 0-.55.656 1.7 1.7 0 0 0-.067.481c0 .173.023.335.068.481a1 1 0 0 0 .219.383 1 1 0 0 0 .379.251c.151.058.335.089.547.088.435-.001.664-.098.759-.15.017-.01.032-.026.012-.073l-.098-.276c-.015-.041-.057-.026-.057-.026-.108.04-.26.112-.619.112-.233-.001-.406-.07-.515-.177-.111-.111-.166-.273-.175-.502l1.507.002s.04-.001.043-.04c.002-.016.052-.309-.045-.649Zm-4.756 1.302a.31.31 0 0 1-.087-.089.365.365 0 0 1-.045-.196c0-.133.044-.228.135-.292-.001 0 .13-.113.437-.109.216.003.409.035.409.035v.685s-.192.041-.407.054c-.307.019-.443-.088-.442-.088Zm.6-1.059a3.65 3.65 0 0 0-.235-.007c-.13 0-.255.016-.372.048a.961.961 0 0 0-.314.146.73.73 0 0 0-.219.248.732.732 0 0 0-.08.348c0 .133.023.249.069.344a.618.618 0 0 0 .196.235.825.825 0 0 0 .307.133c.119.027.253.041.4.041.154 0 .308-.013.457-.038.148-.025.33-.062.38-.073l.105-.027c.038-.01.035-.05.035-.05l-.001-1.378c0-.302-.08-.526-.24-.665-.158-.139-.39-.209-.692-.209-.113 0-.295.016-.404.038 0 0-.329.064-.465.169 0 0-.03.019-.013.06l.107.287c.013.037.05.025.05.025l.024-.013c.29-.157.657-.153.657-.153.163 0 .288.033.372.098.082.063.124.158.124.359v.063a6.316 6.316 0 0 0-.248-.029Zm12.155-.776c.011-.034-.013-.051-.023-.054a1.35 1.35 0 0 0-.253-.044.758.758 0 0 0-.388.063.677.677 0 0 0-.255.188v-.184c0-.025-.018-.046-.043-.046h-.386c-.026 0-.044.021-.044.046v2.248c0 .025.02.046.046.046h.396a.045.045 0 0 0 .032-.014.044.044 0 0 0 .014-.032v-1.123c0-.151.016-.301.05-.395a.559.559 0 0 1 .131-.222.455.455 0 0 1 .187-.112.71.71 0 0 1 .202-.029c.079 0 .166.021.166.021.028.003.045-.015.054-.041.026-.069.1-.275.114-.316Z"/><path fill="#fff" d="M39.495 238.555a1.302 1.302 0 0 0-.149-.036 1.223 1.223 0 0 0-.204-.015c-.273 0-.488.077-.639.229-.15.151-.252.381-.303.683l-.018.102h-.342s-.042-.001-.05.044l-.057.314c-.004.029.01.048.05.048h.332l-.338 1.886a2.3 2.3 0 0 1-.09.371.754.754 0 0 1-.105.215.278.278 0 0 1-.138.106.543.543 0 0 1-.298.012.334.334 0 0 1-.082-.026s-.038-.015-.054.024l-.112.306c-.01.03.005.054.023.061a.897.897 0 0 0 .358.061c.14 0 .266-.02.371-.057a.706.706 0 0 0 .279-.195.992.992 0 0 0 .195-.337 2.84 2.84 0 0 0 .133-.506l.34-1.921h.496s.041.002.05-.044l.056-.313c.004-.03-.009-.049-.05-.049h-.48c.002-.011.024-.18.079-.34a.446.446 0 0 1 .105-.161.313.313 0 0 1 .127-.078.636.636 0 0 1 .363.008c.048.015.055 0 .065-.023l.115-.317c.012-.034-.017-.048-.028-.052Zm-6.732 3.259c0 .025-.018.046-.044.046h-.4c-.024 0-.042-.021-.042-.046v-3.216c0-.025.018-.046.043-.046h.4c.025 0 .043.021.043.046v3.216Z"/></g><g clip-path="url(#R)"><path fill="#95BF46" d="M87.55 193.106a.25.25 0 0 0-.226-.21l-2.082-.155-1.532-1.523c-.152-.152-.448-.105-.563-.072l-.773.239c-.46-1.327-1.275-2.547-2.707-2.547-.04 0-.08.002-.12.004-.408-.539-.912-.773-1.348-.773-3.336 0-4.93 4.171-5.43 6.29l-2.334.724c-.724.227-.747.25-.842.932-.071.516-1.965 15.157-1.965 15.157l14.752 2.764 7.994-1.73s-2.806-18.97-2.824-19.1Zm-5.99-1.469-1.25.387.002-.27c0-.825-.115-1.489-.298-2.015.737.093 1.229.932 1.545 1.898Zm-2.462-1.735c.205.514.339 1.252.339 2.248l-.001.144-2.578.799c.496-1.916 1.427-2.842 2.24-3.191Zm-.99-.938a.75.75 0 0 1 .427.145c-1.07.503-2.215 1.77-2.699 4.3l-2.038.631c.567-1.93 1.913-5.076 4.31-5.076Z"/><path fill="#5E8E3E" d="m87.324 192.896-2.082-.155-1.532-1.523a.385.385 0 0 0-.213-.098l-1.116 22.816 7.993-1.729s-2.806-18.971-2.824-19.101a.25.25 0 0 0-.226-.21Z"/><path fill="#fff" d="m79.667 197.313-.985 2.931s-.864-.46-1.922-.46c-1.552 0-1.63.973-1.63 1.219 0 1.339 3.49 1.852 3.49 4.988 0 2.468-1.565 4.057-3.675 4.057-2.533 0-3.828-1.576-3.828-1.576l.678-2.241s1.332 1.143 2.455 1.143c.734 0 1.032-.578 1.032-1 0-1.746-2.863-1.824-2.863-4.694 0-2.416 1.734-4.754 5.234-4.754 1.348 0 2.014.387 2.014.387Z"/></g><g clip-path="url(#S)"><path fill="#362D59" d="M46.069 388.701a2.43 2.43 0 0 0-4.165 0l-3.425 5.866a16.768 16.768 0 0 1 9.24 13.878h-2.405a14.41 14.41 0 0 0-8.048-11.827l-3.17 5.482a8.28 8.28 0 0 1 4.805 6.335h-5.523a.402.402 0 0 1-.318-.202.396.396 0 0 1-.005-.376l1.53-2.603a5.595 5.595 0 0 0-1.749-.989l-1.514 2.603a2.356 2.356 0 0 0-.24 1.808 2.361 2.361 0 0 0 1.12 1.44c.359.202.764.31 1.176.312h7.563a10.1 10.1 0 0 0-4.164-9.01l1.202-2.082a12.423 12.423 0 0 1 5.362 11.092h6.408a18.677 18.677 0 0 0-8.542-16.553l2.43-4.164a.4.4 0 0 1 .547-.141c.276.151 10.562 18.099 10.755 18.308a.395.395 0 0 1-.354.588h-2.478c.031.663.031 1.324 0 1.983h2.488a2.386 2.386 0 0 0 2.405-2.4c0-.417-.111-.827-.323-1.186L46.07 388.701Z"/></g><path fill="#FF4500" d="M13 364c7.18 0 13-5.82 13-13s-5.82-13-13-13-13 5.82-13 13 5.82 13 13 13Z"/><path fill="#fff" d="M21.672 351a1.89 1.89 0 0 0-1.893-1.893c-.511 0-.977.202-1.318.528-1.303-.931-3.087-1.536-5.073-1.613l.869-4.065 2.823.605a1.35 1.35 0 1 0 1.35-1.412 1.35 1.35 0 0 0-1.21.761l-3.15-.667a.331.331 0 0 0-.248.046.302.302 0 0 0-.14.217l-.961 4.53c-2.017.062-3.832.667-5.15 1.614a1.905 1.905 0 0 0-1.319-.528 1.89 1.89 0 0 0-.776 3.615 3.415 3.415 0 0 0-.046.574c0 2.916 3.397 5.29 7.586 5.29 4.188 0 7.586-2.358 7.586-5.29 0-.187-.016-.388-.047-.574A1.911 1.911 0 0 0 21.672 351Zm-13 1.35a1.35 1.35 0 0 1 2.7 0 1.35 1.35 0 0 1-1.35 1.349c-.745.016-1.35-.605-1.35-1.349Zm7.555 3.583c-.93.931-2.7.993-3.211.993-.528 0-2.296-.078-3.212-.993a.346.346 0 0 1 0-.496c.14-.14.357-.14.497 0 .59.589 1.83.791 2.715.791.884 0 2.14-.202 2.714-.791.14-.14.357-.14.497 0a.377.377 0 0 1 0 .496Zm-.248-2.218a1.35 1.35 0 0 1 0-2.699c.745 0 1.35.605 1.35 1.349 0 .729-.605 1.35-1.35 1.35Z"/><g clip-path="url(#T)"><path fill="#0364B8" d="M470.461 4.922h-13.443a1.098 1.098 0 0 0-1.097 1.097v1.248l7.576 2.346 8.062-2.346V6.02a1.098 1.098 0 0 0-1.098-1.097Z"/><path fill="#0A2767" d="M472.849 16.967c.114-.36.206-.727.273-1.099a.526.526 0 0 0-.26-.45l-.01-.006-.003-.002-8.475-4.828a1.17 1.17 0 0 0-1.269 0l-8.475 4.829-.003.001-.009.006a.525.525 0 0 0-.261.45c.067.372.159.739.273 1.099l8.986 6.572 9.233-6.572Z"/><path fill="#28A8EA" d="M466.867 7.267h-5.473l-1.58 2.346 1.58 2.346 5.473 4.691h4.692v-4.69l-4.692-4.692Z"/><path fill="#0078D4" d="M455.921 7.267h5.473v4.692h-5.473V7.267Z"/><path fill="#50D9FF" d="M466.867 7.267h4.692v4.692h-4.692V7.267Z"/><path fill="#0364B8" d="m466.867 16.65-5.473-4.691h-5.473v4.691l5.473 4.692 8.47 1.382-2.997-6.074Z"/><path fill="#0078D4" d="M461.394 11.959h5.473v4.691h-5.473v-4.69Z"/><path fill="#064A8C" d="M455.921 16.65h5.473v4.692h-5.473V16.65Z"/><path fill="#0078D4" d="M466.867 16.65h4.692v4.692h-4.692V16.65Z"/><path fill="#0A2767" d="m463.888 23.076-9.221-6.724.387-.68 8.53 4.857a.415.415 0 0 0 .329-.01l8.548-4.871.388.68-8.961 6.748Z" opacity=".5"/><path fill="#1490DF" d="m472.862 16.32-.011.006-.002.001-8.474 4.828a1.175 1.175 0 0 1-1.142.07l2.951 3.958 6.454 1.405v.003a1.181 1.181 0 0 0 .485-.949v-9.774a.519.519 0 0 1-.261.451Z"/><path fill="#000" d="M473.123 25.642v-.577l-7.806-4.447-.942.537a1.174 1.174 0 0 1-1.142.07l2.951 3.958 6.454 1.405v.003a1.18 1.18 0 0 0 .485-.949Z" opacity=".05"/><path fill="#000" d="m473.084 25.942-8.557-4.874-.152.086a1.17 1.17 0 0 1-1.142.072l2.951 3.957 6.454 1.405v.003c.219-.158.376-.387.446-.649Z" opacity=".1"/><path fill="#28A8EA" d="M454.63 16.33v-.008h-.007l-.024-.016a.51.51 0 0 1-.242-.438v9.774a1.173 1.173 0 0 0 1.173 1.173h16.42c.097-.001.195-.014.289-.04a.505.505 0 0 0 .141-.046.803.803 0 0 0 .226-.117c.016-.008.024-.008.032-.024L454.63 16.33Z"/><path fill="#000" d="M462.176 22.645V9.873a1.047 1.047 0 0 0-1.043-1.042h-5.189v5.83l-1.314.749-.004.002-.009.005a.525.525 0 0 0-.26.451v7.82h6.776a1.047 1.047 0 0 0 1.043-1.043Z" opacity=".1"/><path fill="#000" d="M461.394 23.427V10.655a1.047 1.047 0 0 0-1.042-1.042h-4.408v5.048l-1.314.75h-.004l-.009.006a.526.526 0 0 0-.26.451v8.601h5.995a1.047 1.047 0 0 0 1.042-1.042Z" opacity=".2"/><path fill="#000" d="M461.394 21.863V10.655a1.047 1.047 0 0 0-1.042-1.042h-4.408v5.048l-1.314.75h-.004l-.009.006a.526.526 0 0 0-.26.451v7.037h5.995a1.047 1.047 0 0 0 1.042-1.042Z" opacity=".2"/><path fill="#000" d="M460.612 21.863V10.655a1.047 1.047 0 0 0-1.042-1.042h-3.626v5.048l-1.314.75h-.004l-.009.006a.526.526 0 0 0-.26.451v7.037h5.213a1.047 1.047 0 0 0 1.042-1.042Z" opacity=".2"/><path fill="#0078D4" d="M449.144 9.613h10.426a1.044 1.044 0 0 1 1.042 1.042v10.426a1.044 1.044 0 0 1-1.042 1.043h-10.426a1.04 1.04 0 0 1-1.043-1.043V10.655a1.04 1.04 0 0 1 1.043-1.042Z"/><path fill="#fff" d="M451.125 13.889a3.269 3.269 0 0 1 1.284-1.419 3.88 3.88 0 0 1 2.041-.511 3.606 3.606 0 0 1 1.886.485c.539.32.974.791 1.25 1.355.301.62.451 1.304.438 1.994a4.62 4.62 0 0 1-.451 2.084 3.318 3.318 0 0 1-1.287 1.403 3.752 3.752 0 0 1-1.958.498 3.699 3.699 0 0 1-1.93-.49 3.285 3.285 0 0 1-1.265-1.358 4.268 4.268 0 0 1-.443-1.97 4.718 4.718 0 0 1 .435-2.072Zm1.368 3.329c.148.373.398.697.722.933.33.232.726.35 1.128.34a1.98 1.98 0 0 0 1.205-.35c.321-.237.564-.563.702-.936.153-.417.229-.858.223-1.302a3.94 3.94 0 0 0-.211-1.319 2.079 2.079 0 0 0-.677-.97 1.866 1.866 0 0 0-1.194-.369 1.95 1.95 0 0 0-1.155.343 2.15 2.15 0 0 0-.738.94 3.73 3.73 0 0 0-.005 2.69Z"/></g><g clip-path="url(#U)"><path fill="#0A66C2" d="M231.153 80.153h-3.852V74.12c0-1.438-.026-3.29-2.004-3.29-2.006 0-2.314 1.567-2.314 3.186v6.137h-3.852V67.747h3.698v1.695h.052a4.05 4.05 0 0 1 3.649-2.004c3.905 0 4.625 2.568 4.625 5.91l-.002 6.805Zm-16.369-14.102a2.237 2.237 0 1 1 .001-4.473 2.237 2.237 0 0 1-.001 4.473Zm1.927 14.103h-3.857V67.747h3.856v12.406h.001Zm16.363-22.152h-22.156A1.897 1.897 0 0 0 209 59.876v22.248A1.898 1.898 0 0 0 210.918 84h22.156A1.903 1.903 0 0 0 235 82.124v-22.25A1.901 1.901 0 0 0 233.074 58"/></g><g clip-path="url(#V)"><path fill="#fff" d="m158.103 60.935 14.358-1.06c1.764-.151 2.217-.05 3.326.757l4.583 3.229c.756.555 1.008.706 1.008 1.311V82.88c0 1.11-.404 1.766-1.814 1.867l-16.674 1.009c-1.058.05-1.563-.101-2.117-.808l-3.375-4.389c-.605-.808-.856-1.412-.856-2.119V62.7c0-.907.403-1.664 1.561-1.765Z"/><path fill="#000" d="m172.461 59.875-14.358 1.06c-1.158.1-1.561.858-1.561 1.765v15.74c0 .707.251 1.311.856 2.12l3.375 4.388c.554.707 1.059.858 2.117.808l16.674-1.01c1.41-.1 1.814-.756 1.814-1.866V65.172c0-.573-.227-.739-.894-1.228l-.115-.083-4.582-3.229c-1.109-.806-1.562-.908-3.326-.757Zm-9.193 5.007c-1.362.092-1.671.113-2.444-.516l-1.966-1.564c-.2-.202-.099-.455.404-.505l13.803-1.008c1.159-.102 1.762.302 2.216.655l2.367 1.715c.101.051.353.353.05.353l-14.254.858-.176.012ZM161.68 82.73V67.696c0-.657.202-.96.806-1.01l16.371-.959c.555-.05.806.303.806.959v14.932c0 .656-.101 1.212-1.007 1.262l-15.667.908c-.906.05-1.309-.252-1.309-1.06Zm15.465-14.227c.101.454 0 .908-.454.96l-.755.15V80.71c-.655.352-1.259.554-1.763.554-.806 0-1.008-.253-1.612-1.009l-4.938-7.768v7.516l1.562.354s0 .908-1.26.908l-3.474.201c-.101-.202 0-.706.352-.807l.907-.251V70.47l-1.259-.102c-.101-.454.15-1.11.856-1.161l3.728-.251 5.138 7.87v-6.963l-1.31-.15c-.101-.556.302-.96.805-1.01l3.477-.202Z"/></g><g clip-path="url(#W)"><path fill="#0364B8" d="m88.708 149.932 5.367-5.132a8.125 8.125 0 0 0-14.658-2.449c.083-.002 9.29 7.581 9.29 7.581Z"/><path fill="#0078D4" d="M82.914 143.318a6.475 6.475 0 0 0-3.414-.969l-.083.002a6.497 6.497 0 0 0-5.25 10.213l8.041-1.007 6.164-4.97-5.458-3.269Z"/><path fill="#1490DF" d="M94.074 144.8a5.252 5.252 0 0 0-2.45.419v-.001l-3.252 1.369 3.585 4.429 6.41 1.558a5.281 5.281 0 0 0-4.293-7.774Z"/><path fill="#28A8EA" d="M74.168 152.564a6.49 6.49 0 0 0 5.332 2.785h14.218a5.28 5.28 0 0 0 4.65-2.775l-9.996-5.987-14.204 5.977Z"/></g><g clip-path="url(#X)"><mask id="Y" width="83" height="18" x="703" y="183" maskUnits="userSpaceOnUse" style="mask-type:luminance"><path fill="#fff" d="M785.421 183.758H703v16.484h82.421v-16.484Z"/></mask><g fill="#08CF65" mask="url(#Y)"><path d="M709.091 189.744c1.256 0 1.848.231 2.757 1.144l4.879 4.899c.145.145.173.203.202.29a.237.237 0 0 1 .015.101c0 .029 0 .073-.015.102-.029.087-.057.145-.202.289l-3.334 3.363c-.145.145-.202.174-.289.203-.029.014-.072.014-.101.014-.029 0-.072 0-.101-.014-.087-.029-.144-.058-.289-.203l-9.454-9.493c-.274-.275-.173-.695.289-.695h5.643Zm13.771-5.986c-1.256 0-1.848.232-2.757 1.145l-4.879 4.898c-.144.145-.173.203-.202.29-.014.029-.014.073-.014.102 0 .029 0 .072.014.101.029.087.058.145.202.29l3.334 3.348c.145.145.203.174.289.203a.252.252 0 0 0 .101.014c.029 0 .072 0 .101-.014.087-.029.145-.058.289-.203l9.454-9.493c.275-.275.174-.681-.288-.681h-5.644Z"/></g></g><g fill="#000" clip-path="url(#Z)"><path d="M704.771 242.972a3.765 3.765 0 0 0-.944-2.488 3.767 3.767 0 0 0-2.355-1.24 14.958 14.958 0 0 0 0 7.454 3.755 3.755 0 0 0 3.299-3.726Zm2.183-1.179a1.177 1.177 0 0 0-.23 2.336 1.176 1.176 0 0 0 1.409-1.157 1.179 1.179 0 0 0-1.179-1.179Zm16.267 1.179a3.756 3.756 0 0 0 3.299 3.726 14.958 14.958 0 0 0 0-7.454 3.767 3.767 0 0 0-2.355 1.24 3.765 3.765 0 0 0-.944 2.488Zm-2.191-1.179a1.184 1.184 0 0 0-1.091.727 1.176 1.176 0 0 0 .254 1.286 1.183 1.183 0 0 0 1.286.256 1.18 1.18 0 0 0-.449-2.269Zm-7.06 10.438a3.758 3.758 0 0 0-3.726 3.297c2.445.629 5.01.629 7.454 0a3.756 3.756 0 0 0-3.728-3.297Zm.002-3.364a1.175 1.175 0 0 0-1.091.727 1.183 1.183 0 0 0 1.54 1.542 1.178 1.178 0 0 0-.449-2.269Zm0-15.098a3.757 3.757 0 0 0 3.726-3.297 14.958 14.958 0 0 0-7.454 0 3.758 3.758 0 0 0 3.728 3.297Zm0 1.007a1.19 1.19 0 0 0-.656.198 1.187 1.187 0 0 0-.502 1.211 1.177 1.177 0 0 0 1.609.86 1.19 1.19 0 0 0 .529-.435 1.179 1.179 0 0 0-.98-1.834Zm6.535 14.731a3.762 3.762 0 0 0-.307 4.964 14.914 14.914 0 0 0 5.269-5.271 3.755 3.755 0 0 0-4.962.307Zm-2.379-2.379a1.176 1.176 0 0 0 .178 1.814 1.177 1.177 0 0 0 1.745-.529 1.18 1.18 0 0 0-1.923-1.285Zm-10.671-10.671a3.756 3.756 0 0 0 .306-4.963 14.908 14.908 0 0 0-5.269 5.269 3.756 3.756 0 0 0 4.963-.306Zm.711.713a1.183 1.183 0 0 0-.256 1.285 1.179 1.179 0 1 0 .256-1.285Zm12.33-.726a3.756 3.756 0 0 0 4.965.301 14.89 14.89 0 0 0-5.271-5.263 3.76 3.76 0 0 0 .306 4.962Zm-.711 2.379a1.18 1.18 0 0 0-.179-1.811 1.178 1.178 0 1 0 .179 1.811Zm-12.337 10.669a3.76 3.76 0 0 0-4.962-.306 14.922 14.922 0 0 0 5.269 5.271 3.76 3.76 0 0 0-.307-4.965Zm.704-2.379a1.175 1.175 0 0 0-.256 1.285 1.178 1.178 0 0 0 2.246-.681 1.175 1.175 0 0 0-1.157-.947 1.18 1.18 0 0 0-.833.343Z"/></g><path fill="#7F35FD" stroke="#7F35FD" stroke-linejoin="round" stroke-width=".353" d="m603.98 605.748-.743-6.248v-.025c0-.005 0-.009-.005-.009v-.005c0-.005-.005-.01-.005-.01v-.005c0-.005-.005-.005-.005-.01s-.005-.005-.005-.01c0 0 0-.005-.005-.005 0-.005-.005-.005-.005-.01v-.005c0-.005-.005-.005-.01-.009l-.009-.01-.005-.005-.005-.005-5.056-5.429c0-.005-.005-.005-.005-.005-.005-.01-.015-.015-.025-.02-.005 0-.005-.005-.01-.005h-.005c-.005-.005-.005-.005-.01-.005s-.005-.005-.01-.005-.01-.005-.015-.005c-.005 0-.01-.004-.01-.004h-.02l-11.293-2.328h-.005c-.01-.005-.025-.005-.04-.005h-.024c-.01 0-.015.005-.025.005-.005 0-.01.005-.015.005-.01 0-.015.005-.025.01h-.005c-.005 0-.01.005-.015.005-.005 0-.01.005-.01.005-.005.005-.01.005-.015.01-.005.005-.01.005-.01.009l-.005.005-6.387 5.942-.01.01c-.005.005-.005.005-.005.01s-.005.005-.005.01c-.005.005-.01.01-.01.015 0 .005-.005.005-.005.009-.005.005-.005.015-.01.02 0 .005-.005.005-.005.01-.005.005-.005.015-.005.02v.093c0 .005 0 .01.005.015v.005l1.551 5.917v.01c0 .005.005.01.005.015a.192.192 0 0 0 .07.094l.01.01c.005.004.01.004.015.009.005 0 .01.005.01.005.009.005.019.01.024.01.005 0 .01.005.015.005.005 0 .01 0 .015.005h.005l2.538.498 2.488 3.062c.005.005.01.01.01.015l.005.005c.005.005.01.01.015.01l.045.029c.005 0 .005.005.01.005s.005.005.01.005.005 0 .01.005c.005 0 .005 0 .01.005.005 0 .01 0 .015.005h.02l3.589.434 2.204 3.457c.01.014.02.029.035.039.005.005.005.005.01.005.01.01.025.02.035.025.005 0 .005.005.01.005.01.005.015.005.025.009.005 0 .01.005.015.005h.01c.015.005.025.005.04.005s.034 0 .054-.005a.183.183 0 0 0 .055-.024l.005.01 1.172 1.681c.04.059.105.089.174.089.015 0 .03 0 .045-.005l2.044-.454a.206.206 0 0 0 .165-.197l.095-2.051 3.325-.839h.015c.005 0 .005 0 .01-.004.015-.005.03-.01.04-.02.005 0 .005-.005.01-.005s.005-.005.01-.005c.01-.005.015-.015.025-.02l.005-.005c.01-.01.02-.024.025-.039 0 0 0-.005.005-.005 0-.005.005-.01.005-.015l.708-1.696 2.946-1.923a.234.234 0 0 0 .085-.207Zm-1.336-6.322-2.014.641a1.074 1.074 0 0 0-.938-.542h-.059l-1.242-4.67 4.253 4.571Zm-4.572 4.98c-.035-.005-.07-.005-.105-.005a.941.941 0 0 0-.763.395l-4.581-1.765a1.02 1.02 0 0 0 .014-.168c0-.025 0-.049-.005-.069l6.108-1.726c.09.173.229.321.394.419l-1.062 2.919Zm.429.913c0 .133-.05.251-.13.345a.553.553 0 0 1-.384.187h-.025a.574.574 0 0 1-.204-.039.516.516 0 0 1-.294-.301.628.628 0 0 1-.035-.168v-.019c0-.143.06-.277.154-.375a.56.56 0 0 1 .349-.158h.035c.14 0 .27.054.369.143a.53.53 0 0 1 .165.385Zm-3.261 2.327a1.176 1.176 0 0 0-1.012-.163l-1.974-3.821a.966.966 0 0 0 .214-.232l4.582 1.765a.928.928 0 0 0 .12.597l-1.93 1.854Zm.07.947a.722.722 0 0 1-.075.325.753.753 0 0 1-.867.395.724.724 0 0 1-.364-.217.734.734 0 0 1 .035-1.041.776.776 0 0 1 .518-.207c.135 0 .259.035.369.094a.73.73 0 0 1 .374.557c.01.03.01.059.01.094Zm-3.076-5.725c0 .158-.06.296-.155.404l-.015.015a.6.6 0 0 1-.354.187l-.005.035-.015-.03c-.025.005-.05.005-.08.005a.617.617 0 0 1-.628-.616.631.631 0 0 1 .628-.621h.01c.055 0 .105.009.155.019.14.04.259.124.344.237l.015-.005-.01.01c.065.108.11.232.11.36Zm-.22-.932a1.004 1.004 0 0 0-.528-.074l-.628-1.81a.88.88 0 0 0 .393-.907l3.64-1.657c.045.069.1.128.155.188l-3.032 4.26Zm-2.413-2.194-2.044 1.898 2.239-5.37.01-.024.005.024.254 2.219a.876.876 0 0 0-.579.824c0 .157.045.3.115.429Zm5.111-2.633-3.64 1.656a.884.884 0 0 0-.578-.32l-.255-2.219a.874.874 0 0 0 .474-.419l3.964.897v.074a.924.924 0 0 0 .035.331Zm-4.358-1.554a.529.529 0 0 1-.085.148.447.447 0 0 1-.334.153.46.46 0 0 1-.349-.163.43.43 0 0 1-.07-.434.432.432 0 0 1 .32-.276c.034-.01.069-.01.104-.01.145 0 .274.069.354.173.035.044.06.099.08.153.01.039.015.079.015.118-.015.045-.02.094-.035.138Zm-.239 3.329a.52.52 0 0 1 .598.044.498.498 0 0 1 .02.75.518.518 0 0 1-.349.138c-.015 0-.035 0-.05-.005a.503.503 0 0 1-.454-.503.448.448 0 0 1 .235-.424Zm5.28-.967a1.284 1.284 0 0 0 1.281-.103l2.139 2.169a1.04 1.04 0 0 0-.185.686l-6.107 1.726a.953.953 0 0 0-.155-.217l3.027-4.261Zm-.265-1.144c0-.138.035-.266.095-.379a.818.818 0 0 1 .723-.429c.449 0 .818.36.818.808a.808.808 0 0 1-.419.705.843.843 0 0 1-.399.104.82.82 0 0 1-.813-.774c-.005-.01-.005-.02-.005-.035Zm4.004 4.192a.659.659 0 0 1-.115-.38v-.025a.643.643 0 0 1 .309-.537c.025-.015.045-.03.07-.04a.674.674 0 0 1 .299-.069h.04a.673.673 0 0 1 .638.671v.005a.668.668 0 0 1-.678.666h-.019a.65.65 0 0 1-.399-.143.701.701 0 0 1-.145-.148Zm.09-1.332c-.04.02-.075.04-.11.059l-2.134-2.169c.155-.207.249-.469.249-.75 0-.7-.573-1.267-1.281-1.267a1.28 1.28 0 0 0-1.182.784l-3.739-.848 6.786-1.114 1.411 5.305Zm-2.413-5.567-6.083 1.001a.88.88 0 0 0-1.207-.424l-2.263-2.534 9.553 1.957Zm-10.032-1.854 2.423 2.712a.86.86 0 0 0 .2 1.184l-2.289 5.488c-.045-.005-.085-.01-.129-.01a.79.79 0 0 0-.19.02l-1.122-2.229a1.167 1.167 0 0 0-.214-2.007l1.321-5.158Zm-1.301 6.77a.764.764 0 0 1-.379.188c-.045.01-.085.01-.13.01a.79.79 0 0 1-.189-.025.721.721 0 0 1-.364-.217.72.72 0 0 1-.195-.409c-.005-.03-.005-.064-.005-.099a.75.75 0 0 1 .723-.745h.03a.745.745 0 0 1 .509 1.297Zm.813-6.558-1.242 4.847c-.025 0-.055-.005-.08-.005-.518 0-.957.331-1.121.789l-3.102-.478 5.545-5.153Zm-5.724 5.547 3.211.494c.01.34.164.646.409.853l-2.274 3.787-1.346-5.134Zm3.984 1.569c.129.049.269.073.413.073.115 0 .225-.014.329-.044l1.122 2.229a.875.875 0 0 0-.314.656l-3.834.877 2.284-3.791Zm-1.706 4.087 3.077-.705-1.516 1.011-1.561-.306Zm3.929 3.058-2.014-2.481 1.635-1.094a.956.956 0 0 0 .379.202v3.373Zm.215-3.753a.537.537 0 0 1-.215-.049l-.02-.01a.463.463 0 0 1-.239-.35c-.005-.02-.005-.04-.005-.059a.54.54 0 0 1 .095-.281.48.48 0 0 1 .344-.188l.015-.039.02.039a.485.485 0 0 1 .354.163.459.459 0 0 1 .114.306c0 .078-.02.157-.06.221a.425.425 0 0 1-.204.193.394.394 0 0 1-.145.044.148.148 0 0 1-.054.01Zm.214 4.162v-3.782l.105-.03 2.931 4.187-3.036-.375Zm.449-4.053a.853.853 0 0 0 .219-.577.835.835 0 0 0-.115-.429l2.134-1.983c.14.089.304.143.484.143.025 0 .05 0 .08-.005l.628 1.81a1.01 1.01 0 0 0 .135 1.81l-.649 3.387-2.916-4.156Zm5.285 7.83-2.03-3.181.723-3.801a1 1 0 0 0 .245-.035l1.974 3.822a1.147 1.147 0 0 0-.06 1.785l-.852 1.41Zm3.305 1.529-1.745.389-1.002-1.44 2.832-.715-.085 1.766Zm-2.852-1.46.763-1.267a1.174 1.174 0 0 0 1.511-.691l3.34.548-5.614 1.41Zm2.339-2.372a1.142 1.142 0 0 0-.195-.621l1.935-1.859a.92.92 0 0 0 .703.118l1.491 2.998-3.934-.636Zm4.287.405-1.465-2.949a.92.92 0 0 0 .339-.705.932.932 0 0 0-.419-.77l1.067-2.914c.035.005.07.01.105.01l.912 6.055-.539 1.273Zm.913-1.598-.868-5.789c.414-.148.708-.538.708-1.001 0-.04 0-.079-.005-.118l2.084-.666.698 5.863-2.617 1.711Z"/><path fill="#8FBCFA" d="m733.996 340.545 3.102 4.843c.498.778-.068 1.792-1.001 1.792h-1.269v7.251h-1.834V340c.384 0 .769.182 1.002.545Z"/><path fill="#468BFF" d="m728.891 345.388 3.102-4.843a1.189 1.189 0 0 1 1.003-.545v14.431a2.923 2.923 0 0 0-1.835.519v-7.77h-1.269c-.933 0-1.5-1.014-1.001-1.792Z"/><path fill="#FDBB11" d="M742.72 359.218h-7.721a2.839 2.839 0 0 0 .769-1.809H750c0 .379-.184.758-.552.988l-4.912 3.059c-.788.492-1.817-.067-1.817-.987l.001-1.251Z"/><path fill="#F6D785" d="m744.536 353.362 4.911 3.059c.369.23.552.609.552.988h-14.231a2.85 2.85 0 0 0-.541-1.809h7.493v-1.25c0-.92 1.028-1.48 1.816-.988Z"/><path fill="#FF9A9D" d="m728.827 361.238-4.48 4.419a1.183 1.183 0 0 0 1.098.313l5.667-1.262c.909-.202 1.236-1.314.576-1.964l-.897-.885 3.377-3.33a1.732 1.732 0 0 0 0-2.465l-.047-.047-5.294 5.221Z"/><path fill="#FE363B" d="m728.199 359.301 3.375-3.329a1.774 1.774 0 0 1 1.251-.511 1.787 1.787 0 0 1 1.25.511l.047.046-5.294 5.22-4.48 4.419a1.148 1.148 0 0 1-.318-1.083l1.279-5.588c.205-.898 1.333-1.219 1.993-.569l.897.884Z"/><defs><clipPath id="a"><path fill="#fff" d="M248 24.896h26v21.836h-26z"/></clipPath><clipPath id="b"><path fill="#fff" d="M303 29h26v26h-26z"/></clipPath><clipPath id="c"><path fill="#fff" d="M349 .813h26v24.032h-26z"/></clipPath><clipPath id="d"><path fill="#fff" d="M130 113.9h26v24.273h-26z"/></clipPath><clipPath id="f"><path fill="#fff" d="M631 95.354h26v23.461h-26z"/></clipPath><clipPath id="h"><path fill="#fff" d="M544 38.354h26v23.23h-26z"/></clipPath><clipPath id="i"><path fill="#fff" d="M744.333 387h17.55v26h-17.55z"/></clipPath><clipPath id="k"><path fill="#fff" d="M701 436.858h26v20.283h-26z"/></clipPath><clipPath id="l"><path fill="#fff" d="M648.6 518h18.8v26h-18.8z"/></clipPath><clipPath id="v"><path fill="#fff" d="M492 624.668h26v24.663h-26z"/></clipPath><clipPath id="w"><path fill="#fff" d="M401.792 640h18.136v26h-18.136z"/></clipPath><clipPath id="x"><path fill="#fff" d="M353.12 662h19.24v26h-19.24z"/></clipPath><clipPath id="H"><path fill="#fff" d="M311 636h26v26h-26z"/></clipPath><clipPath id="I"><path fill="#fff" d="M203 602.399h26v10.866h-26z"/></clipPath><clipPath id="J"><path fill="#fff" d="M151 609h26v26h-26z"/></clipPath><clipPath id="L"><path fill="#fff" d="M134 564.737h26v18.281h-26z"/></clipPath><clipPath id="M"><path fill="#fff" d="M74.542 535H99.97v26H74.542z"/></clipPath><clipPath id="N"><path fill="#fff" d="M19 444h26v26.954H19z"/></clipPath><clipPath id="Q"><path fill="#fff" d="M24 232.15h26v18.198H24z"/></clipPath><clipPath id="R"><path fill="#fff" d="M67.625 188h22.794v26H67.625z"/></clipPath><clipPath id="S"><path fill="#fff" d="M31 387.441h26v23.055H31z"/></clipPath><clipPath id="T"><path fill="#fff" d="M448 3.358h26v25.02h-26z"/></clipPath><clipPath id="U"><path fill="#fff" d="M209 58h26v26h-26z"/></clipPath><clipPath id="V"><path fill="#fff" d="M156.542 59.816h24.836v26h-24.836z"/></clipPath><clipPath id="W"><path fill="#fff" d="M73 138.691h26v16.758H73z"/></clipPath><clipPath id="X"><path fill="#fff" d="M703 183.758h26v16.484h-26z"/></clipPath><clipPath id="Z"><path fill="#fff" d="M701 230h25.992v26H701z"/></clipPath><linearGradient id="e" x1="361.088" x2="1229.14" y1="32.739" y2="1536.18" gradientUnits="userSpaceOnUse"><stop stop-color="#5A62C3"/><stop offset=".5" stop-color="#4D55BD"/><stop offset="1" stop-color="#3940AB"/></linearGradient><linearGradient id="g" x1="2907.74" x2="2005.33" y1="317.537" y2="1598.83" gradientUnits="userSpaceOnUse"><stop offset=".18" stop-color="#0052CC"/><stop offset="1" stop-color="#2684FF"/></linearGradient><linearGradient id="o" x1="987.624" x2="987.624" y1="580.991" y2="1181.75" gradientUnits="userSpaceOnUse"><stop stop-color="#1A237E" stop-opacity=".2"/><stop offset="1" stop-color="#1A237E" stop-opacity=".02"/></linearGradient><linearGradient id="B" x1="368.62" x2="368.62" y1="669.304" y2="675.14" gradientUnits="userSpaceOnUse"><stop stop-color="#263238" stop-opacity=".2"/><stop offset="1" stop-color="#263238" stop-opacity=".02"/></linearGradient><linearGradient id="K" x1="1451" x2="1451" y1="609" y2="3209" gradientUnits="userSpaceOnUse"><stop stop-color="#0091E6"/><stop offset="1" stop-color="#0079BF"/></linearGradient><linearGradient id="O" x1="31.875" x2="41.461" y1="457.113" y2="461.134" gradientUnits="userSpaceOnUse"><stop stop-color="#249361"/><stop offset="1" stop-color="#3ECF8E"/></linearGradient><linearGradient id="P" x1="27.624" x2="31.996" y1="451.294" y2="459.524" gradientUnits="userSpaceOnUse"><stop/><stop offset="1" stop-opacity="0"/></linearGradient><radialGradient id="u" cx="0" cy="0" r="1" gradientTransform="translate(708.159 569.091) scale(3031.47)" gradientUnits="userSpaceOnUse"><stop stop-color="#fff" stop-opacity=".1"/><stop offset="1" stop-color="#fff" stop-opacity="0"/></radialGradient><radialGradient id="G" cx="0" cy="0" r="1" gradientTransform="translate(354.025 662.874) scale(29.6184)" gradientUnits="userSpaceOnUse"><stop stop-color="#fff" stop-opacity=".1"/><stop offset="1" stop-color="#fff" stop-opacity="0"/></radialGradient></defs></svg>