<svg xmlns="http://www.w3.org/2000/svg" width="27" height="26" fill="none"><g clip-path="url(#a)"><path fill="#2684FF" d="M25.358 0H12.87a5.637 5.637 0 0 0 5.637 5.637h2.3v2.22a5.637 5.637 0 0 0 5.633 5.634V1.083A1.082 1.082 0 0 0 25.358 0Z"/><path fill="url(#b)" d="M19.18 6.222H6.691a5.637 5.637 0 0 0 5.633 5.633h2.3v2.228a5.637 5.637 0 0 0 5.637 5.63V7.305c0-.598-.485-1.083-1.083-1.083Z"/><path fill="url(#c)" d="M12.997 12.44H.51a5.637 5.637 0 0 0 5.637 5.637h2.307v2.221a5.637 5.637 0 0 0 5.626 5.633V13.523c0-.598-.485-1.083-1.083-1.083Z"/></g><defs><linearGradient id="b" x1="1337.03" x2="809.063" y1="8.389" y2="559.292" gradientUnits="userSpaceOnUse"><stop offset=".18" stop-color="#0052CC"/><stop offset="1" stop-color="#2684FF"/></linearGradient><linearGradient id="c" x1="1366.59" x2="755.87" y1="18.579" y2="619.442" gradientUnits="userSpaceOnUse"><stop offset=".18" stop-color="#0052CC"/><stop offset="1" stop-color="#2684FF"/></linearGradient><clipPath id="a"><path fill="#fff" d="M.51 0h26v26h-26z"/></clipPath></defs></svg>